<svg id="Layer_1" data-name="Layer 1" xmlns="http://www.w3.org/2000/svg" viewBox="0 0 1142.62 811.66"><defs><style>.cls-1{fill:#27aae1;}.cls-2{fill:#8dc63f;}.cls-3{fill:#fff;}.cls-4{fill:none;}</style></defs><title>strider-background</title><path class="cls-1" d="M66.63,436l47.24-118.68,64.22-38L0.45,176.85,0,176.59V529.74l0.45-.26,38-21.91,79.83-68.8,50-27.47-10.43-13.18ZM505.48,115.24L305.87,0V264.91l17.88,3,143.4-50.55,14.27-36.26-11-39.55Zm-505,61.09L0,176.59l0.45,0.26L178.09,279.4l47.31-28,80.47,13.5V0Zm0,353.15L0,529.74,0.45,530,15,527.79l23.48-20.22Z" transform="translate(280.62 19.66)"/><path class="cls-2" d="M566.89,150.72l-10.76,6.21-42.3,3.84-12.42,79.5,110.3-63.68ZM265,478.33V416.24l-8.25-13.72L138,455.26l-112.8,89,280.63,162V474.79ZM299,394.81l-14.83,61.54L305.87,455V391.87Zm45.27-19.46-38.42,16.52V455l95.9-5.84,52.74,37.37-62.64-19.23-86,7.45V706.33L611.71,529.74ZM501.41,240.27L499.56,252,389.68,355.81l-45.39,19.54L611.71,529.74V176.59Z" transform="translate(280.62 19.66)"/><polygon class="cls-3" points="579.64 414.47 564.81 476.01 586.49 474.7 586.49 494.45 545.58 497.99 545.58 435.9 537.33 422.18 418.66 474.92 305.86 563.97 281.07 549.66 295.58 547.45 319.06 527.23 586.49 372.83 586.49 411.53 579.64 414.47"/><polygon class="cls-3" points="735.13 506.23 672.49 487 586.49 494.45 586.49 474.7 682.39 468.87 735.13 506.23"/><polygon class="cls-3" points="398.89 458.43 448.88 430.96 438.45 417.78 347.25 455.69 394.49 337.01 458.71 299.06 586.49 372.83 319.06 527.23 398.89 458.43"/><polygon class="cls-3" points="586.49 284.57 586.49 372.83 458.71 299.06 506.02 271.07 586.49 284.57"/><polygon class="cls-3" points="836.75 176.59 794.45 180.43 782.03 259.93 586.49 372.83 586.49 284.57 604.37 287.56 747.77 237.01 762.04 200.75 751.05 161.2 786.1 134.9 797.97 141.77 836.75 176.59"/><polygon class="cls-3" points="624.91 395.01 586.49 411.53 586.49 372.83 624.91 395.01"/><polygon class="cls-3" points="782.03 259.93 780.18 271.63 670.3 375.47 624.91 395.01 586.49 372.83 782.03 259.93"/><line class="cls-4" x1="1142.62" x2="892.62" y2="144.33"/><line class="cls-4" x1="281.07" y1="578.28" y2="740.56"/><polygon class="cls-1" points="586.49 19.66 281.07 195.99 281.07 19.66 586.49 19.66"/><polygon class="cls-1" points="892.62 19.66 892.62 144.33 847.51 170.38 797.97 141.77 786.1 134.9 586.49 19.66 892.62 19.66"/><polygon class="cls-2" points="892.62 144.33 892.62 811.66 281.07 811.66 281.07 578.28 305.86 563.97 586.49 725.99 892.33 549.4 892.33 196.25 847.51 170.38 892.62 144.33"/><polygon class="cls-1" points="847.51 170.38 836.75 176.59 797.97 141.77 847.51 170.38"/><polygon class="cls-4" points="892.33 196.25 892.33 549.4 586.49 725.99 305.86 563.97 281.07 578.28 281.07 195.99 586.49 19.66 786.1 134.9 797.97 141.77 836.75 176.59 847.51 170.38 892.33 196.25"/></svg>